<svg width="406" height="406" viewBox="0 0 406 406" fill="none" xmlns="http://www.w3.org/2000/svg">
<g clip-path="url(#clip0_229_705)">
<mask id="mask0_229_705" style="mask-type:luminance" maskUnits="userSpaceOnUse" x="0" y="0" width="406" height="406">
<path d="M406 0H0V406H406V0Z" fill="white"/>
</mask>
<g mask="url(#mask0_229_705)">
<path d="M106.97 148.14C107.255 109.477 122.587 72.445 149.717 44.897H149.668L44.925 149.639H44.975C44.585 149.946 44.217 150.281 43.875 150.64C18.402 176.079 2.958 209.853 0.377 245.761C-2.204 281.67 8.252 317.305 29.826 346.126L135.618 240.333L136.719 239.283C117.001 213.025 106.54 180.974 106.97 148.14Z" fill="#0C8C5E"/>
<path d="M361.302 256.532C341.256 276.179 316.091 289.797 288.679 295.835C261.267 301.872 232.71 300.086 206.264 290.68C192.163 285.674 178.911 278.542 166.966 269.531L165.866 270.631L60.074 376.374C88.907 397.894 124.522 408.316 160.408 405.737C196.293 403.157 230.051 387.747 255.51 362.325L256.56 361.275L361.302 256.532Z" fill="#0C8C5E"/>
<path d="M406.2 149.639V5.477C406.2 2.452 403.747 0 400.723 0H256.561C236.908 -0.02 217.445 3.844 199.289 11.368C181.134 18.893 164.644 29.931 150.768 43.847L149.718 44.897C131.427 63.466 118.34 86.519 111.771 111.742C123.663 108.663 135.884 107.034 148.168 106.892C181.003 106.506 213.046 116.982 239.311 136.691C262.918 154.295 280.784 178.493 290.658 206.236C300.721 234.591 302.045 265.314 294.457 294.429C319.686 287.871 342.741 274.783 361.303 256.482L362.353 255.482C376.275 241.599 387.316 225.102 394.841 206.937C402.366 188.774 406.226 169.301 406.2 149.639Z" fill="#18E299"/>
</g>
</g>
<defs>
<clipPath id="clip0_229_705">
<rect width="406" height="406" fill="white" transform="translate(0 0)"/>
</clipPath>
</defs>
</svg>
