<svg width="1606" height="757" viewBox="0 0 1606 757" fill="none" xmlns="http://www.w3.org/2000/svg">
<path d="M396.817 547.182L440.762 685.321H442.449L486.483 547.182H529.096L466.419 729H416.881L354.114 547.182H396.817ZM550.27 729V592.636H588.09V729H550.27ZM569.269 575.058C563.646 575.058 558.822 573.194 554.798 569.465C550.832 565.677 548.85 561.15 548.85 555.882C548.85 550.674 550.832 546.205 554.798 542.477C558.822 538.689 563.646 536.795 569.269 536.795C574.891 536.795 579.685 538.689 583.651 542.477C587.675 546.205 589.688 550.674 589.688 555.882C589.688 561.15 587.675 565.677 583.651 569.465C579.685 573.194 574.891 575.058 569.269 575.058ZM619.096 729V547.182H656.915V615.541H658.069C659.726 611.872 662.123 608.143 665.26 604.355C668.456 600.508 672.599 597.312 677.689 594.767C682.838 592.163 689.23 590.861 696.865 590.861C706.809 590.861 715.982 593.465 724.387 598.673C732.791 603.822 739.509 611.605 744.539 622.022C749.57 632.379 752.086 645.371 752.086 660.996C752.086 676.206 749.629 689.05 744.717 699.526C739.864 709.942 733.235 717.844 724.831 723.229C716.485 728.556 707.134 731.219 696.777 731.219C689.438 731.219 683.194 730.006 678.044 727.58C672.954 725.153 668.782 722.105 665.527 718.435C662.271 714.707 659.786 710.948 658.069 707.161H656.382V729H619.096ZM656.116 660.818C656.116 668.927 657.241 675.999 659.49 682.036C661.739 688.073 664.994 692.778 669.255 696.152C673.517 699.466 678.695 701.124 684.792 701.124C690.947 701.124 696.155 699.437 700.417 696.063C704.678 692.63 707.904 687.896 710.093 681.859C712.342 675.763 713.467 668.749 713.467 660.818C713.467 652.946 712.372 646.022 710.182 640.044C707.992 634.066 704.767 629.391 700.505 626.017C696.244 622.643 691.006 620.957 684.792 620.957C678.636 620.957 673.428 622.584 669.167 625.839C664.964 629.095 661.739 633.711 659.49 639.689C657.241 645.667 656.116 652.71 656.116 660.818ZM839.466 731.663C825.439 731.663 813.365 728.822 803.244 723.141C793.183 717.4 785.429 709.291 779.984 698.815C774.539 688.28 771.817 675.822 771.817 661.44C771.817 647.413 774.539 635.102 779.984 624.508C785.429 613.914 793.094 605.657 802.978 599.739C812.921 593.82 824.581 590.861 837.956 590.861C846.953 590.861 855.327 592.311 863.081 595.211C870.893 598.052 877.7 602.343 883.5 608.084C889.359 613.825 893.916 621.045 897.172 629.746C900.427 638.387 902.055 648.508 902.055 660.108V670.495H786.909V647.058H866.454C866.454 641.612 865.271 636.789 862.903 632.587C860.536 628.384 857.251 625.1 853.049 622.732C848.906 620.306 844.082 619.092 838.578 619.092C832.837 619.092 827.747 620.424 823.308 623.087C818.928 625.692 815.496 629.213 813.01 633.652C810.524 638.032 809.251 642.915 809.192 648.3V670.584C809.192 677.331 810.435 683.161 812.921 688.073C815.466 692.986 819.047 696.773 823.663 699.437C828.28 702.1 833.754 703.432 840.087 703.432C844.289 703.432 848.136 702.84 851.628 701.656C855.12 700.473 858.109 698.697 860.595 696.33C863.081 693.962 864.975 691.062 866.277 687.629L901.256 689.938C899.48 698.342 895.84 705.681 890.336 711.955C884.891 718.169 877.848 723.022 869.206 726.514C860.625 729.947 850.711 731.663 839.466 731.663ZM927.445 729V547.182H965.886V627.349H968.283L1033.71 547.182H1079.79L1012.32 628.592L1080.59 729H1034.6L984.796 654.249L965.886 677.331V729H927.445ZM1107.64 729V592.636H1145.46V729H1107.64ZM1126.64 575.058C1121.02 575.058 1116.2 573.194 1112.17 569.465C1108.21 565.677 1106.22 561.15 1106.22 555.882C1106.22 550.674 1108.21 546.205 1112.17 542.477C1116.2 538.689 1121.02 536.795 1126.64 536.795C1132.26 536.795 1137.06 538.689 1141.02 542.477C1145.05 546.205 1147.06 550.674 1147.06 555.882C1147.06 561.15 1145.05 565.677 1141.02 569.465C1137.06 573.194 1132.26 575.058 1126.64 575.058ZM1248.29 592.636V621.045H1166.17V592.636H1248.29ZM1184.81 559.966H1222.63V687.097C1222.63 690.589 1223.17 693.311 1224.23 695.264C1225.3 697.158 1226.78 698.49 1228.67 699.259C1230.62 700.029 1232.87 700.413 1235.42 700.413C1237.19 700.413 1238.97 700.265 1240.74 699.969C1242.52 699.614 1243.88 699.348 1244.83 699.17L1250.78 727.313C1248.88 727.905 1246.22 728.586 1242.79 729.355C1239.35 730.184 1235.18 730.687 1230.27 730.864C1221.15 731.219 1213.16 730.006 1206.3 727.224C1199.49 724.443 1194.19 720.122 1190.41 714.263C1186.62 708.403 1184.75 701.005 1184.81 692.068V559.966Z" fill="white"/>
<path d="M610 397.5H960V47.5H610V397.5Z" fill="black"/>
</svg>
